<svg xmlns="http://www.w3.org/2000/svg" width="50" height="50"  xmlns:v="https://vecta.io/nano"><path d="M1.362 25.347c3.683.223 5.81-2.319 7.104-5.52l2.666-7.208c1.193-2.675 1.448.989 1.693 2.096l1.208 6.773c.71 4.409 1.057 8.863 1.811 13.268.399 2.331.656 5.194 2.55 6.818 3.168 2.716 6.744-3.091 7.003-5.603.148-1.429.204-2.841.253-4.275.111-3.273 1.965-3.152 4.403-4.126 1.671-.667 2.634-1.544 3.619-3.045.637-.968 1.047-1.958 1.805-2.864.209-.251.443 2.521.447 2.745.028 1.88.478 3.787 1.816 5.139 3.34 3.372 6.682-5.3 7.254-7.121 1.2-3.829.399-.332.886 1.845.389 1.744 1.836 2.725 3.479 3.074 1.887.402 2.688-2.489.797-2.893-3.472-.74-.186-8.295-5.076-7.719-1.398.165-1.907 1.571-2.357 2.717-.441 1.122-.688 2.39-1.049 3.543-.764 2.434-2.709 4.011-2.76.73-.03-1.962-.267-6.359-3.44-5.486-1.593.438-2.612 1.797-3.457 3.116-1.172 1.829-2.195 3.327-4.644 3.469-.91.053-1.64.391-2.428.796-1.509.775-1.889 2.876-2.124 4.337-.168 1.044-.183 2.104-.219 3.158-.075 2.22-2.334 8.131-3.316 3.528-1.832-8.587-2.064-17.434-4.357-25.938-.844-3.13-3.56-4.074-5.542-1.039C7.16 13.073 6.43 22.653 1.362 22.347c-1.933-.118-1.922 2.883 0 3h0z"/><path d="M.606 22.4c-.471.102.268-.001-.229.029l-.531.007c-1.935.003-1.935 3.003 0 3 .525-.001 1.042-.031 1.558-.143.799-.173 1.255-1.09 1.047-1.845-.225-.821-1.046-1.22-1.845-1.048h0z"/></svg>