<?xml version="1.0" standalone="no"?>
<!DOCTYPE svg PUBLIC "-//W3C//DTD SVG 20010904//EN"
 "http://www.w3.org/TR/2001/REC-SVG-20010904/DTD/svg10.dtd">
<svg version="1.0" xmlns="http://www.w3.org/2000/svg"
 width="700.000000pt" height="700.000000pt" viewBox="0 0 700.000000 700.000000"
 preserveAspectRatio="xMidYMid meet">
<metadata>
Created by potrace 1.11, written by Peter Selinger 2001-2013
</metadata>
<g transform="translate(0.000000,700.000000) scale(0.100000,-0.100000)"
fill="#000000" stroke="none">
<path d="M1596 5889 c-134 -46 -249 -162 -340 -346 -50 -101 -100 -233 -182
-483 -141 -425 -186 -546 -271 -715 -136 -271 -287 -420 -468 -462 -18 -4
-257 -21 -312 -23 l-23 0 0 -210 0 -211 137 6 c273 11 343 23 461 76 215 97
381 276 522 564 52 106 99 226 261 670 22 61 46 126 54 145 8 19 37 98 65 175
28 77 63 164 78 194 26 52 65 101 80 101 30 -1 74 -76 87 -147 3 -16 7 -39 10
-53 3 -14 12 -68 21 -120 9 -52 18 -104 20 -115 2 -11 13 -73 25 -137 11 -64
22 -127 24 -140 4 -20 9 -45 30 -163 27 -153 36 -204 40 -225 3 -14 10 -54 16
-90 5 -36 14 -83 19 -105 4 -22 11 -60 14 -85 3 -25 8 -55 11 -68 2 -13 9 -56
14 -95 6 -40 13 -83 15 -97 3 -14 10 -68 16 -120 6 -52 13 -106 15 -120 6 -37
26 -200 30 -240 4 -33 12 -95 20 -150 2 -14 6 -52 10 -85 3 -33 7 -73 10 -90
2 -16 7 -52 10 -80 3 -27 8 -59 10 -70 2 -11 7 -45 10 -75 3 -30 7 -66 9 -80
2 -14 7 -47 11 -73 4 -27 8 -56 9 -65 2 -10 7 -39 10 -67 4 -27 10 -66 12 -85
3 -19 19 -116 36 -215 16 -99 31 -192 33 -207 5 -38 34 -173 51 -243 61 -242
186 -441 333 -529 173 -104 364 -55 556 140 178 180 334 478 360 684 2 19 7
73 10 120 4 47 8 103 10 125 2 22 6 112 10 200 11 288 17 329 66 425 47 96
141 165 294 218 33 12 107 38 165 58 339 118 478 240 689 603 80 137 141 230
164 249 13 11 17 6 26 -38 6 -28 14 -74 17 -103 3 -29 7 -63 9 -76 2 -13 7
-67 10 -120 17 -280 44 -409 117 -555 65 -131 159 -235 251 -280 127 -63 250
-26 392 118 68 69 205 250 205 271 0 4 8 19 19 33 28 41 134 253 184 372 50
118 89 224 141 385 41 123 51 144 58 123 3 -7 5 -78 6 -158 3 -293 28 -403
116 -522 92 -126 300 -238 440 -238 l46 0 0 205 0 205 -50 25 c-110 56 -164
184 -195 460 -8 70 -25 203 -32 244 -7 50 -42 160 -64 202 -28 56 -104 117
-167 135 -74 22 -200 15 -264 -14 -93 -41 -161 -135 -234 -323 -39 -101 -53
-144 -114 -369 -70 -252 -118 -356 -209 -453 -68 -72 -123 -85 -166 -39 -41
44 -52 95 -59 293 -14 356 -86 583 -213 670 -53 37 -90 48 -157 49 -89 2 -180
-28 -272 -89 -117 -78 -190 -162 -350 -401 -219 -330 -345 -418 -630 -446 -38
-3 -79 -10 -91 -15 -13 -5 -23 -7 -23 -4 0 2 -20 -4 -45 -15 -25 -11 -48 -19
-50 -19 -3 0 -40 -17 -83 -37 -198 -97 -287 -271 -346 -684 -6 -44 -16 -206
-21 -330 -4 -120 -11 -172 -42 -289 -81 -311 -212 -525 -304 -496 -30 10 -76
79 -95 143 -16 57 -69 304 -79 372 -3 20 -8 47 -10 60 -11 53 -45 251 -65 380
-28 176 -26 166 -45 305 -9 66 -18 131 -20 145 -3 14 -7 50 -11 80 -3 30 -8
63 -10 74 -2 10 -6 44 -10 75 -3 31 -8 63 -9 71 -2 9 -6 43 -10 75 -4 33 -9
67 -10 75 -2 8 -6 44 -10 80 -4 36 -9 72 -10 81 -2 9 -6 40 -10 70 -3 30 -8
65 -10 79 -7 39 -23 160 -30 215 -3 28 -10 75 -15 105 -5 30 -12 75 -15 100
-3 25 -7 56 -10 70 -2 14 -7 41 -9 60 -3 19 -8 46 -10 60 -3 14 -7 43 -11 65
-17 122 -90 505 -115 610 -10 44 -22 95 -25 113 -11 66 -84 338 -104 393 -12
32 -39 83 -60 115 -109 168 -254 234 -405 183z"/>
</g>
</svg>
